<?xml version="1.0" encoding="iso-8859-1"?>
<!-- Generator: Adobe Illustrator 16.0.0, SVG Export Plug-In . SVG Version: 6.00 Build 0)  -->
<!DOCTYPE svg PUBLIC "-//W3C//DTD SVG 1.1//EN" "http://www.w3.org/Graphics/SVG/1.1/DTD/svg11.dtd">
<svg version="1.1" id="Capa_1" xmlns="http://www.w3.org/2000/svg" xmlns:xlink="http://www.w3.org/1999/xlink" x="0px" y="0px"
	 width="51.703px" height="51.703px" viewBox="0 0 51.703 51.703" style="enable-background:new 0 0 51.703 51.703;"
	 xml:space="preserve">
<g>
	<g>
		<path d="M51.361,0.342c-0.457-0.455-1.195-0.455-1.652,0L18.906,31.144V12.645c0-0.645-0.523-1.168-1.167-1.168
			c-0.646,0-1.168,0.523-1.168,1.168v22.487h22.485c0.646,0,1.168-0.522,1.168-1.168c0-0.644-0.522-1.168-1.168-1.168h-18.5
			L51.361,1.994C51.817,1.539,51.817,0.799,51.361,0.342z"/>
		<polygon points="45.067,49.366 2.335,49.366 2.335,6.634 34.481,6.634 34.481,4.299 0,4.299 0,51.702 47.403,51.702 
			47.403,17.219 45.067,17.219 		"/>
	</g>
</g>
<g>
</g>
<g>
</g>
<g>
</g>
<g>
</g>
<g>
</g>
<g>
</g>
<g>
</g>
<g>
</g>
<g>
</g>
<g>
</g>
<g>
</g>
<g>
</g>
<g>
</g>
<g>
</g>
<g>
</g>
</svg>
