<?xml version="1.0" ?><svg height="467.39099" id="svg22" version="1.1" viewBox="0 0 467.39999 467.39099" width="467.39999" xml:space="preserve" xmlns="http://www.w3.org/2000/svg" xmlns:cc="http://creativecommons.org/ns#" xmlns:dc="http://purl.org/dc/elements/1.1/" xmlns:inkscape="http://www.inkscape.org/namespaces/inkscape" xmlns:rdf="http://www.w3.org/1999/02/22-rdf-syntax-ns#" xmlns:sodipodi="http://sodipodi.sourceforge.net/DTD/sodipodi-0.dtd" xmlns:svg="http://www.w3.org/2000/svg"><defs id="defs26"/><g id="Search_icon" transform="translate(-22.299,-22.305)"><g id="g18"><path d="m 255.999,22.305 c 129.123,0 233.7,104.582 233.7,233.695 0,129.118 -104.577,233.695 -233.7,233.695 -129.118,0 -233.7,-104.577 -233.7,-233.695 0,-129.113 104.582,-233.695 233.7,-233.695 z" id="path4" style="clip-rule:evenodd;fill:#90dfaa;fill-rule:evenodd"/><path d="m 485.323,301.389 c -21.187,107.269 -116.001,188.307 -229.324,188.307 -70.612,0 -133.828,-31.27 -176.53,-80.704 l 54.813,-54.799 c 5.717,-5.726 12.774,-7.739 19.498,-6.728 5.721,-5.717 11.433,-11.434 17.479,-17.15 -38.656,-48.423 -35.301,-119.04 9.085,-163.751 48.089,-48.084 126.432,-48.084 174.516,0 44.042,44.038 87.427,89.436 130.463,134.825 z" id="path6" style="clip-rule:evenodd;fill:#82c999;fill-rule:evenodd"/><polygon id="polygon8" points="135.618,399.571 115.782,379.411 186.06,309.124 206.239,328.969 " style="clip-rule:evenodd;fill:#37373e;fill-rule:evenodd"/><path d="m 46.177,436.232 c -9.076,9.081 -9.076,22.866 0,31.942 v 0 c 8.751,8.737 22.871,8.737 31.617,0 l 85.404,-85.404 c 9.081,-9.085 9.081,-22.871 0,-31.951 v 0 c -9.08,-9.071 -22.871,-9.071 -31.946,0 z" id="path10" style="clip-rule:evenodd;fill:#4b4b55;fill-rule:evenodd"/><path d="m 351.83,163.524 c 47.745,47.75 47.745,126.107 0,174.182 -48.085,48.085 -126.427,48.085 -174.512,0 -48.08,-48.075 -48.08,-126.432 0,-174.182 48.085,-48.07 126.427,-48.07 174.512,0 z M 198.5,316.529 c 35.979,35.979 94.828,35.979 131.479,0 35.979,-35.983 35.979,-94.829 0,-131.48 -35.979,-35.979 -94.828,-35.979 -131.479,0 -35.97,35.979 -35.97,94.834 0,131.48 z" id="path12" style="clip-rule:evenodd;fill:#ffffff;fill-rule:evenodd"/><path d="m 198.5,316.529 c -35.97,-36.646 -35.97,-95.501 0,-131.48 36.651,-35.979 95.501,-35.979 131.479,0 35.979,36.651 35.979,95.497 0,131.48 -36.651,35.979 -95.5,35.979 -131.479,0 z" id="path14" style="clip-rule:evenodd;fill:#90dfaa;fill-rule:evenodd"/><path d="m 319.893,307.449 c 33.287,-32.954 33.287,-87.089 0,-120.72 -2.357,-2.348 -4.715,-4.7 -7.063,-6.719 4.705,3.359 9.071,7.057 13.108,11.104 33.292,33.612 33.292,87.428 0,120.705 -30.926,30.602 -80.027,32.954 -113.314,6.395 32.949,21.859 78.008,18.151 107.269,-10.765 z" id="path16" style="clip-rule:evenodd;fill:#ffffff;fill-rule:evenodd"/></g></g><g id="Layer_1" transform="translate(-22.299,-22.305)"/></svg>